<svg width="711" height="158" viewBox="0 0 711 158" fill="none" xmlns="http://www.w3.org/2000/svg">
<path d="M694.734 49.1771H710.094L686.469 91.2083V118.089H672.974V91.2083L649.453 49.1771H664.802L679.771 77.9219" fill="white"/>
<path fill-rule="evenodd" clip-rule="evenodd" d="M71.0938 38.1042L81.2396 40.9323L79.8802 32.2448" fill="white"/>
<path d="M279.984 64.8281L270.531 92.9844H289.437L279.984 64.8281ZM312.573 118.083H297.802L293.667 105.682H266.198L262.068 118.083H247.401L271.521 49.1771H288.349" fill="white"/>
<path d="M349.479 119.464C339.187 119.464 330.614 116.021 323.786 109.13C317.026 102.302 313.651 93.8073 313.651 83.6302C313.651 73.3906 317.026 64.8958 323.786 58.1354C330.614 51.2396 339.187 47.7969 349.479 47.7969C355.719 47.7969 361.479 49.2552 366.76 52.1771C372.052 55.099 376.161 59.0521 379.12 64.0417L367.401 70.8333C365.693 67.75 363.265 65.3385 360.12 63.599C356.974 61.8594 353.427 60.9896 349.479 60.9896C342.786 60.9896 337.375 63.0885 333.239 67.2865C329.172 71.5521 327.135 77.0052 327.135 83.6302C327.135 90.1927 329.172 95.6094 333.239 99.875C337.375 104.073 342.786 106.172 349.479 106.172C353.427 106.172 356.984 105.307 360.172 103.568C363.349 101.828 365.76 99.4479 367.401 96.4271L379.12 103.219C376.161 108.208 372.052 112.161 366.76 115.083C361.479 118.005 355.719 119.464 349.479 119.464Z" fill="white"/>
<path d="M413.667 64.8281L404.229 92.9844H423.12L413.667 64.8281ZM446.255 118.083H431.495L427.359 105.682H399.896L395.76 118.083H381.094L405.214 49.1771H422.042" fill="white"/>
<path d="M466.531 105.089H480.318C486.292 105.089 491.146 103.12 494.896 99.1875C498.625 95.1146 500.495 89.9323 500.495 83.6302C500.495 77.2656 498.625 72.1146 494.896 68.1771C491.146 64.1719 486.292 62.1719 480.318 62.1719H466.531V105.089ZM452.948 49.1719H480.318C489.771 49.1719 497.64 52.4896 503.948 59.1146C510.307 65.6823 513.495 73.8542 513.495 83.6302C513.495 93.4115 510.307 101.583 503.948 108.141C497.64 114.771 489.771 118.083 480.318 118.083H452.948" fill="white"/>
<path d="M536.735 89.6354V105.089H565.771V118.083H523.146V49.1771H565.281V62.1719H536.735V76.8385H562.813V89.6354" fill="white"/>
<path d="M628.771 49.1771H642.761V118.089H629.266V73.3906L609.865 105.385H608.292L588.906 73.4896V118.089H575.318V49.1771H589.292L609.078 81.7604" fill="white"/>
<path d="M247.401 132.188H264.042V136.453H257.932V154.813H253.479V136.453H247.401" fill="#00C61C"/>
<path d="M275.318 138.198C277.104 138.198 278.573 138.792 279.682 139.974C280.854 141.182 281.427 142.818 281.427 144.885V154.813H277.266V145.406C277.266 144.349 276.974 143.531 276.412 142.948C275.839 142.37 275.052 142.078 274.068 142.078C272.958 142.078 272.094 142.417 271.469 143.094C270.828 143.771 270.505 144.771 270.505 146.083V154.813H266.333V132.188H270.505V140.458C271.495 138.953 273.104 138.198 275.318 138.198Z" fill="#00C61C"/>
<path d="M289.162 154.812H284.99V138.651H289.162V154.812ZM287.052 136.714C286.36 136.714 285.761 136.458 285.255 135.953C284.745 135.448 284.505 134.849 284.505 134.156C284.505 133.469 284.745 132.865 285.255 132.349C285.761 131.833 286.36 131.573 287.052 131.573C287.761 131.573 288.375 131.833 288.88 132.349C289.386 132.865 289.641 133.469 289.641 134.156C289.641 134.849 289.386 135.448 288.88 135.953C288.375 136.458 287.761 136.714 287.052 136.714Z" fill="#00C61C"/>
<path d="M301.958 138.198C303.745 138.198 305.198 138.792 306.318 139.974C307.479 141.182 308.068 142.818 308.068 144.885V154.812H303.896V145.406C303.896 144.349 303.615 143.531 303.042 142.948C302.469 142.37 301.682 142.078 300.693 142.078C299.599 142.078 298.719 142.417 298.094 143.094C297.453 143.771 297.136 144.771 297.136 146.083V154.812H292.974V138.651H297.136V140.458C298.136 138.953 299.735 138.198 301.958 138.198Z" fill="#00C61C"/>
<path d="M319.828 146.635L326.521 154.813H321.667L315.787 147.474V154.813H311.615V132.188H315.787V145.76L321.349 138.651H326.318" fill="#00C61C"/>
<path d="M333.76 152.484C333.76 153.24 333.479 153.88 332.948 154.422C332.411 154.964 331.76 155.229 331.016 155.229C330.255 155.229 329.615 154.964 329.068 154.422C328.531 153.88 328.266 153.24 328.266 152.484C328.266 151.729 328.531 151.083 329.068 150.547C329.615 150.005 330.255 149.734 331.016 149.734C331.76 149.734 332.411 150.005 332.948 150.547C333.479 151.083 333.76 151.729 333.76 152.484Z" fill="#00C61C"/>
<path d="M356.385 142.661H367.719V144.401C367.719 147.635 366.693 150.25 364.625 152.255C362.547 154.26 359.88 155.266 356.599 155.266C353.12 155.266 350.213 154.13 347.906 151.87C345.625 149.583 344.479 146.807 344.479 143.531C344.479 140.234 345.614 137.443 347.88 135.161C350.161 132.875 352.984 131.734 356.349 131.734C358.437 131.734 360.359 132.208 362.094 133.156C363.838 134.104 365.213 135.385 366.198 137.005L362.385 139.198C361.854 138.271 361.026 137.521 359.932 136.938C358.838 136.354 357.625 136.063 356.318 136.063C354.135 136.063 352.359 136.776 350.984 138.198C349.599 139.578 348.906 141.354 348.906 143.531C348.906 145.661 349.614 147.432 351.015 148.828C352.411 150.208 354.292 150.901 356.64 150.901C358.333 150.901 359.76 150.526 360.906 149.771C362.042 149.016 362.828 147.958 363.229 146.599H356.385" fill="#00C61C"/>
<path d="M374.865 138.651V141.432C375.229 140.417 375.854 139.646 376.735 139.12C377.625 138.594 378.641 138.328 379.771 138.328V142.984C378.505 142.813 377.36 143.068 376.349 143.76C375.36 144.427 374.865 145.536 374.865 147.089V154.813H370.693V138.651" fill="#00C61C"/>
<path d="M386.146 149.932C386.984 150.771 388.026 151.193 389.281 151.193C390.531 151.193 391.573 150.771 392.411 149.932C393.255 149.089 393.682 148.026 393.682 146.734C393.682 145.437 393.255 144.37 392.411 143.531C391.573 142.693 390.531 142.271 389.281 142.271C388.026 142.271 386.984 142.693 386.146 143.531C385.318 144.391 384.922 145.458 384.922 146.734C384.922 148 385.318 149.068 386.146 149.932ZM395.359 152.807C393.719 154.448 391.693 155.266 389.281 155.266C386.864 155.266 384.838 154.448 383.198 152.807C381.573 151.172 380.745 149.141 380.745 146.734C380.745 144.339 381.573 142.323 383.198 140.687C384.864 139.026 386.896 138.198 389.281 138.198C391.667 138.198 393.693 139.026 395.359 140.687C397.015 142.344 397.838 144.359 397.838 146.734C397.838 149.125 397.015 151.151 395.359 152.807Z" fill="#00C61C"/>
<path d="M415.588 148.604L418.333 138.651H422.76L417.625 154.812H413.651L410.682 145.016L407.708 154.812H403.719L398.588 138.651H403.015L405.76 148.573L408.708 138.651H412.651" fill="#00C61C"/>
<path d="M427.255 152.484C427.255 153.24 426.984 153.88 426.437 154.422C425.906 154.964 425.265 155.229 424.505 155.229C423.745 155.229 423.104 154.964 422.573 154.422C422.026 153.88 421.76 153.24 421.76 152.484C421.76 151.729 422.026 151.083 422.573 150.547C423.104 150.005 423.745 149.734 424.505 149.734C425.265 149.734 425.906 150.005 426.437 150.547C426.984 151.083 427.255 151.729 427.255 152.484Z" fill="#00C61C"/>
<path d="M439.016 154.813H443.474V132.188H439.016V154.813Z" fill="#00C61C"/>
<path d="M456.469 138.198C458.255 138.198 459.719 138.792 460.838 139.974C462 141.182 462.573 142.818 462.573 144.885V154.812H458.411V145.406C458.411 144.349 458.12 143.531 457.562 142.948C456.984 142.37 456.198 142.078 455.213 142.078C454.104 142.078 453.239 142.417 452.614 143.094C451.974 143.771 451.651 144.771 451.651 146.083V154.812H447.479V138.651H451.651V140.458C452.64 138.953 454.255 138.198 456.469 138.198Z" fill="#00C61C"/>
<path d="M475.12 138.198C476.906 138.198 478.359 138.792 479.479 139.974C480.64 141.182 481.229 142.818 481.229 144.885V154.812H477.052V145.406C477.052 144.349 476.771 143.531 476.198 142.948C475.625 142.37 474.854 142.078 473.854 142.078C472.76 142.078 471.896 142.417 471.255 143.094C470.625 143.771 470.307 144.771 470.307 146.083V154.812H466.135V138.651H470.307V140.458C471.292 138.953 472.896 138.198 475.12 138.198Z" fill="#00C61C"/>
<path d="M489.333 149.932C490.187 150.771 491.229 151.193 492.479 151.193C493.719 151.193 494.771 150.771 495.614 149.932C496.453 149.089 496.864 148.026 496.864 146.734C496.864 145.437 496.453 144.37 495.614 143.531C494.771 142.693 493.719 142.271 492.479 142.271C491.229 142.271 490.187 142.693 489.333 143.531C488.521 144.391 488.104 145.458 488.104 146.734C488.104 148 488.521 149.068 489.333 149.932ZM498.547 152.807C496.906 154.448 494.896 155.266 492.479 155.266C490.068 155.266 488.042 154.448 486.401 152.807C484.76 151.172 483.948 149.141 483.948 146.734C483.948 144.339 484.76 142.323 486.401 140.687C488.052 139.026 490.078 138.198 492.479 138.198C494.864 138.198 496.896 139.026 498.547 140.687C500.213 142.344 501.042 144.359 501.042 146.734C501.042 149.125 500.213 151.151 498.547 152.807Z" fill="#00C61C"/>
<path d="M510.026 149.964L513.958 138.651H518.563L512.412 154.807H507.667L501.521 138.651H506.104" fill="#00C61C"/>
<path d="M524.505 150.026C525.349 150.865 526.411 151.292 527.708 151.292C529 151.292 530.068 150.865 530.906 150.026C531.76 149.167 532.198 148.068 532.198 146.734C532.198 145.396 531.76 144.307 530.906 143.469C530.068 142.604 529 142.177 527.708 142.177C526.411 142.177 525.349 142.604 524.505 143.469C523.667 144.307 523.24 145.396 523.24 146.734C523.24 148.068 523.667 149.167 524.505 150.026ZM532.198 140.557V138.651H536.359V154.812H532.198V152.906C530.948 154.479 529.187 155.266 526.932 155.266C524.771 155.266 522.922 154.448 521.375 152.807C519.839 151.151 519.078 149.125 519.078 146.734C519.078 144.359 519.839 142.349 521.375 140.687C522.922 139.026 524.771 138.198 526.932 138.198C529.187 138.198 530.948 138.984 532.198 140.557Z" fill="#00C61C"/>
<path d="M549.386 138.651V142.661H545.735V149.38C545.735 149.943 545.881 150.349 546.162 150.609C546.438 150.865 546.839 151.016 547.386 151.047C547.922 151.078 548.589 151.073 549.386 151.031V154.813C546.563 155.135 544.563 154.87 543.36 154.021C542.172 153.167 541.573 151.625 541.573 149.38V142.661H538.761V138.651H541.573V135.385L545.735 134.125V138.651" fill="#00C61C"/>
<path d="M555.307 145.208H563.547C563.307 144.156 562.828 143.349 562.104 142.786C561.385 142.229 560.531 141.948 559.531 141.948C558.411 141.948 557.495 142.234 556.76 142.802C556.026 143.375 555.547 144.177 555.307 145.208ZM567.547 148.443H555.375C555.906 150.469 557.427 151.479 559.932 151.479C561.521 151.479 562.734 150.943 563.547 149.865L566.906 151.807C565.307 154.109 562.958 155.266 559.865 155.266C557.187 155.266 555.042 154.453 553.427 152.839C551.812 151.224 551.016 149.187 551.016 146.729C551.016 144.318 551.802 142.292 553.401 140.651C554.974 139.016 557.016 138.198 559.531 138.198C561.932 138.198 563.88 139.016 565.385 140.651C566.932 142.292 567.719 144.318 567.719 146.729C567.719 147.182 567.667 147.755 567.547 148.443Z" fill="#00C61C"/>
<path d="M574.505 152.484C574.505 153.24 574.24 153.88 573.693 154.422C573.161 154.964 572.505 155.229 571.76 155.229C571 155.229 570.359 154.964 569.813 154.422C569.281 153.88 569.016 153.24 569.016 152.484C569.016 151.729 569.281 151.083 569.813 150.547C570.359 150.005 571 149.734 571.76 149.734C572.505 149.734 573.161 150.005 573.693 150.547C574.24 151.083 574.505 151.729 574.505 152.484Z" fill="#00C61C"/>
<path d="M0.333496 46.0312H75.0262V69.9896H50.1356V154.932H25.2345V69.9896H0.333496" fill="#00C61C"/>
<path d="M136 94.2552H190.614V103.594C190.614 119.771 185.531 132.792 175.359 142.641C165.307 152.286 152.495 157.109 136.932 157.109C120.026 157.109 105.974 151.661 94.7707 140.776C83.6821 129.885 78.1353 116.505 78.1353 100.635C78.1353 84.7656 83.6248 71.3385 94.6248 60.3437C105.614 49.3489 119.146 43.8489 135.229 43.8489C145.281 43.8489 154.547 46.1094 163 50.6198C171.453 55.1302 178.052 61.1771 182.828 68.7448L161.667 80.8802C159.187 77.0416 155.573 73.9531 150.864 71.6198C146.146 69.2864 140.88 68.1198 135.068 68.1198C125.838 68.1198 118.161 71.1823 112.042 77.3021C106.026 83.3177 103.026 91.1458 103.026 100.792C103.026 110.125 106.135 117.854 112.359 123.974C118.573 129.885 126.88 132.839 137.255 132.839C151.562 132.839 160.838 127.24 165.094 116.036H136" fill="#00C61C"/>
<path d="M204.615 154.932H229.505V46.0312H204.615V154.932Z" fill="#00C61C"/>
<path fill-rule="evenodd" clip-rule="evenodd" d="M177.292 20.8698L176.708 16.8073C168.682 14.8542 159.828 12.1615 151.563 9.78126C143.229 7.38543 135.016 5.19793 126.495 2.60418C119.615 0.510428 120.573 -0.21874 114.625 3.84376L87.3333 21.8542L82.1615 22.6719L81.599 22.7552C79.974 23.0365 79.7865 24.0729 80.1615 26.4063L80.1979 26.6511L69.7188 33.5833L70.1875 36.625L80.651 29.599L82.9844 44.5104L83.0938 44.8854C82.1354 45.5938 81.5885 46.7969 81.7865 48.0521C81.974 49.25 82.7708 50.1927 83.8281 50.6094C82.401 55.7865 83.8021 56.6927 85.651 61.5625L88.7188 61.0833C88.9844 55.8802 90.0938 54.5781 87.1458 50.0886C88.0156 49.3698 88.4948 48.2292 88.3073 47.0313C88.1042 45.7708 87.2292 44.7917 86.0938 44.4167L86.0781 44.0208L85.7865 42.1927V42.1875L83.8021 29.599L83.5469 27.9271C95.0521 20.2708 106.573 12.6094 118.094 4.94793C120.745 2.8698 121.599 4.53126 119.495 5.78126C117.292 7.45314 113.375 10.0521 112.042 10.9219L84.8802 28.8854L87.0417 42.5417L97.0156 45.3698L95.6823 36.6771C103.375 30.2865 108.214 27.2448 120.469 24.8542C122.984 24.349 124.438 24.2292 124.042 25.6771C122.599 27.4792 112.641 25.6458 97.6406 37.5573C97.8802 39.6198 98.5729 43.1146 98.9844 46.2188L99.4115 48.9531C106.682 43.5313 115.24 40.0417 125.094 38.4948C125.255 38.4688 125.427 38.4531 125.589 38.4271C127.547 38.099 129.547 37.9011 131.641 37.8229C139.214 37.4219 146.531 38.4271 153.573 40.875C154.198 41.0938 154.813 41.3438 155.427 41.5781L154.563 35.9219" fill="white"/>
</svg>
