<svg width="710" height="158" viewBox="0 0 710 158" fill="none" xmlns="http://www.w3.org/2000/svg">
<path d="M279.651 64.8281L270.198 92.9844H289.099L279.651 64.8281ZM312.234 118.083H297.469L293.333 105.682H265.865L261.734 118.083H247.068L271.182 49.1771H288.016" fill="#1A1E21"/>
<path d="M349.151 119.464C338.849 119.464 330.286 116.021 323.458 109.13C316.698 102.302 313.318 93.8073 313.318 83.6302C313.318 73.3906 316.698 64.8958 323.458 58.1354C330.286 51.2396 338.849 47.7969 349.151 47.7969C355.385 47.7969 361.146 49.2552 366.427 52.1771C371.713 55.099 375.833 59.0521 378.786 64.0417L367.068 70.8333C365.359 67.75 362.932 65.3385 359.786 63.599C356.635 61.8594 353.088 60.9896 349.151 60.9896C342.458 60.9896 337.042 63.0885 332.906 67.2865C328.838 71.5521 326.807 77.0052 326.807 83.6302C326.807 90.1927 328.838 95.6094 332.906 99.875C337.042 104.073 342.458 106.172 349.151 106.172C353.088 106.172 356.651 105.307 359.833 103.568C363.016 101.828 365.427 99.4479 367.068 96.4271L378.786 103.219C375.833 108.208 371.713 112.161 366.427 115.083C361.146 118.005 355.385 119.464 349.151 119.464Z" fill="#1A1E21"/>
<path d="M413.338 64.8281L403.891 92.9844H422.792L413.338 64.8281ZM445.927 118.083H431.156L427.026 105.682H399.557L395.422 118.083H380.755L404.875 49.1771H421.708" fill="#1A1E21"/>
<path d="M466.203 105.089H479.984C485.958 105.089 490.818 103.12 494.557 99.1875C498.297 95.1146 500.167 89.9323 500.167 83.6302C500.167 77.2656 498.297 72.1146 494.557 68.1771C490.818 64.1719 485.958 62.1719 479.984 62.1719H466.203V105.089ZM452.62 49.1719H479.984C489.438 49.1719 497.313 52.4896 503.615 59.1146C509.979 65.6823 513.162 73.8542 513.162 83.6302C513.162 93.4115 509.979 101.583 503.615 108.141C497.313 114.771 489.438 118.083 479.984 118.083H452.62" fill="#1A1E21"/>
<path d="M536.396 89.6354V105.089H565.437V118.083H522.807V49.1771H564.948V62.1719H536.396V76.8385H562.484V89.6354" fill="#1A1E21"/>
<path d="M628.438 49.1771H642.422V118.089H628.932V73.3906L609.536 105.385H607.964L588.573 73.4896V118.089H574.984V49.1771H588.964L608.75 81.7604" fill="#1A1E21"/>
<path d="M694.401 49.1771H709.755L686.13 91.2083V118.089H672.646V91.2083L649.115 49.1771H664.474L679.437 77.9219" fill="#1A1E21"/>
<path d="M247.068 132.188H263.708V136.453H257.599V154.813H253.141V136.453H247.068" fill="white"/>
<path d="M274.99 138.198C276.776 138.198 278.234 138.792 279.354 139.974C280.516 141.182 281.099 142.818 281.099 144.885V154.813H276.927V145.406C276.927 144.349 276.646 143.531 276.073 142.948C275.5 142.37 274.719 142.078 273.729 142.078C272.63 142.078 271.76 142.417 271.13 143.094C270.49 143.771 270.172 144.771 270.172 146.083V154.813H266.005V132.188H270.172V140.458C271.161 138.953 272.771 138.198 274.99 138.198Z" fill="white"/>
<path d="M288.818 154.812H284.651V138.651H288.818V154.812ZM286.719 136.714C286.031 136.714 285.432 136.458 284.927 135.953C284.417 135.448 284.167 134.849 284.167 134.156C284.167 133.469 284.417 132.865 284.927 132.349C285.432 131.833 286.031 131.573 286.719 131.573C287.432 131.573 288.042 131.833 288.547 132.349C289.052 132.865 289.307 133.469 289.307 134.156C289.307 134.849 289.052 135.448 288.547 135.953C288.042 136.458 287.432 136.714 286.719 136.714Z" fill="white"/>
<path d="M301.62 138.198C303.406 138.198 304.865 138.792 305.984 139.974C307.146 141.182 307.729 142.818 307.729 144.885V154.812H303.557V145.406C303.557 144.349 303.276 143.531 302.703 142.948C302.13 142.37 301.349 142.078 300.359 142.078C299.26 142.078 298.396 142.417 297.76 143.094C297.125 143.771 296.802 144.771 296.802 146.083V154.812H292.635V138.651H296.802V140.458C297.797 138.953 299.401 138.198 301.62 138.198Z" fill="white"/>
<path d="M319.495 146.635L326.182 154.813H321.338L315.453 147.474V154.813H311.286V132.188H315.453V145.76L321.01 138.651H325.99" fill="white"/>
<path d="M333.422 152.484C333.422 153.24 333.151 153.88 332.615 154.422C332.073 154.964 331.427 155.229 330.677 155.229C329.917 155.229 329.271 154.964 328.734 154.422C328.193 153.88 327.927 153.24 327.927 152.484C327.927 151.729 328.193 151.083 328.734 150.547C329.271 150.005 329.917 149.734 330.677 149.734C331.427 149.734 332.073 150.005 332.615 150.547C333.151 151.083 333.422 151.729 333.422 152.484Z" fill="white"/>
<path d="M356.047 142.661H367.391V144.401C367.391 147.635 366.354 150.25 364.287 152.255C362.219 154.26 359.547 155.266 356.271 155.266C352.781 155.266 349.88 154.13 347.578 151.87C345.297 149.583 344.151 146.807 344.151 143.531C344.151 140.234 345.281 137.443 347.547 135.161C349.828 132.875 352.651 131.734 356.016 131.734C358.099 131.734 360.021 132.208 361.766 133.156C363.51 134.104 364.88 135.385 365.87 137.005L362.057 139.198C361.516 138.271 360.698 137.521 359.599 136.938C358.5 136.354 357.297 136.063 355.979 136.063C353.802 136.063 352.026 136.776 350.646 138.198C349.271 139.578 348.578 141.354 348.578 143.531C348.578 145.661 349.281 147.432 350.682 148.828C352.078 150.208 353.953 150.901 356.302 150.901C358.005 150.901 359.427 150.526 360.573 149.771C361.714 149.016 362.49 147.958 362.901 146.599H356.047" fill="white"/>
<path d="M374.531 138.651V141.432C374.896 140.417 375.521 139.646 376.406 139.12C377.292 138.594 378.302 138.328 379.443 138.328V142.984C378.172 142.813 377.031 143.068 376.016 143.76C375.026 144.427 374.531 145.536 374.531 147.089V154.813H370.359V138.651" fill="white"/>
<path d="M385.813 149.932C386.651 150.771 387.698 151.193 388.948 151.193C390.193 151.193 391.24 150.771 392.078 149.932C392.922 149.089 393.344 148.026 393.344 146.734C393.344 145.437 392.922 144.37 392.078 143.531C391.24 142.693 390.193 142.271 388.948 142.271C387.698 142.271 386.651 142.693 385.813 143.531C384.99 144.391 384.583 145.458 384.583 146.734C384.583 148 384.99 149.068 385.813 149.932ZM395.021 152.807C393.385 154.448 391.359 155.266 388.948 155.266C386.531 155.266 384.505 154.448 382.87 152.807C381.234 151.172 380.417 149.141 380.417 146.734C380.417 144.339 381.234 142.323 382.87 140.687C384.531 139.026 386.552 138.198 388.948 138.198C391.339 138.198 393.359 139.026 395.021 140.687C396.682 142.344 397.51 144.359 397.51 146.734C397.51 149.125 396.682 151.151 395.021 152.807Z" fill="white"/>
<path d="M415.255 148.604L418.005 138.651H422.427L417.292 154.812H413.312L410.344 145.016L407.37 154.812H403.391L398.255 138.651H402.682L405.427 148.573L408.37 138.651H412.312" fill="white"/>
<path d="M426.922 152.484C426.922 153.24 426.651 153.88 426.115 154.422C425.573 154.964 424.927 155.229 424.177 155.229C423.422 155.229 422.776 154.964 422.234 154.422C421.698 153.88 421.427 153.24 421.427 152.484C421.427 151.729 421.698 151.083 422.234 150.547C422.776 150.005 423.422 149.734 424.177 149.734C424.927 149.734 425.573 150.005 426.115 150.547C426.651 151.083 426.922 151.729 426.922 152.484Z" fill="white"/>
<path d="M438.682 154.813H443.146V132.188H438.682V154.813Z" fill="white"/>
<path d="M456.141 138.198C457.927 138.198 459.38 138.792 460.505 139.974C461.661 141.182 462.245 142.818 462.245 144.885V154.812H458.078V145.406C458.078 144.349 457.792 143.531 457.219 142.948C456.646 142.37 455.87 142.078 454.88 142.078C453.781 142.078 452.911 142.417 452.276 143.094C451.641 143.771 451.323 144.771 451.323 146.083V154.812H447.156V138.651H451.323V140.458C452.312 138.953 453.917 138.198 456.141 138.198Z" fill="white"/>
<path d="M474.786 138.198C476.573 138.198 478.026 138.792 479.146 139.974C480.312 141.182 480.891 142.818 480.891 144.885V154.812H476.724V145.406C476.724 144.349 476.437 143.531 475.87 142.948C475.297 142.37 474.516 142.078 473.526 142.078C472.427 142.078 471.557 142.417 470.922 143.094C470.286 143.771 469.969 144.771 469.969 146.083V154.812H465.802V138.651H469.969V140.458C470.958 138.953 472.568 138.198 474.786 138.198Z" fill="white"/>
<path d="M489.005 149.932C489.849 150.771 490.891 151.193 492.141 151.193C493.391 151.193 494.438 150.771 495.276 149.932C496.12 149.089 496.536 148.026 496.536 146.734C496.536 145.437 496.12 144.37 495.276 143.531C494.438 142.693 493.391 142.271 492.141 142.271C490.891 142.271 489.849 142.693 489.005 143.531C488.188 144.391 487.781 145.458 487.781 146.734C487.781 148 488.188 149.068 489.005 149.932ZM498.219 152.807C496.578 154.448 494.552 155.266 492.141 155.266C489.729 155.266 487.703 154.448 486.063 152.807C484.427 151.172 483.609 149.141 483.609 146.734C483.609 144.339 484.427 142.323 486.063 140.687C487.724 139.026 489.75 138.198 492.141 138.198C494.531 138.198 496.557 139.026 498.219 140.687C499.875 142.344 500.703 144.359 500.703 146.734C500.703 149.125 499.875 151.151 498.219 152.807Z" fill="white"/>
<path d="M509.693 149.964L513.635 138.651H518.224L512.083 154.807H507.333L501.193 138.651H505.781" fill="white"/>
<path d="M524.172 150.026C525.01 150.865 526.078 151.292 527.37 151.292C528.661 151.292 529.729 150.865 530.568 150.026C531.432 149.167 531.859 148.068 531.859 146.734C531.859 145.396 531.432 144.307 530.568 143.469C529.729 142.604 528.661 142.177 527.37 142.177C526.078 142.177 525.01 142.604 524.172 143.469C523.328 144.307 522.911 145.396 522.911 146.734C522.911 148.068 523.328 149.167 524.172 150.026ZM531.859 140.557V138.651H536.031V154.812H531.859V152.906C530.615 154.479 528.859 155.266 526.594 155.266C524.437 155.266 522.583 154.448 521.036 152.807C519.505 151.151 518.74 149.125 518.74 146.734C518.74 144.359 519.505 142.349 521.036 140.687C522.583 139.026 524.437 138.198 526.594 138.198C528.859 138.198 530.615 138.984 531.859 140.557Z" fill="white"/>
<path d="M549.057 138.651V142.661H545.406V149.38C545.406 149.943 545.547 150.349 545.823 150.609C546.104 150.865 546.516 151.016 547.052 151.047C547.594 151.078 548.26 151.073 549.057 151.031V154.813C546.234 155.135 544.224 154.87 543.031 154.021C541.833 153.167 541.234 151.625 541.234 149.38V142.661H538.422V138.651H541.234V135.385L545.406 134.125V138.651" fill="white"/>
<path d="M554.969 145.208H563.214C562.974 144.156 562.495 143.349 561.776 142.786C561.052 142.229 560.198 141.948 559.203 141.948C558.083 141.948 557.156 142.234 556.427 142.802C555.693 143.375 555.208 144.177 554.969 145.208ZM567.219 148.443H555.036C555.573 150.469 557.094 151.479 559.594 151.479C561.187 151.479 562.396 150.943 563.214 149.865L566.573 151.807C564.979 154.109 562.63 155.266 559.526 155.266C556.859 155.266 554.708 154.453 553.094 152.839C551.479 151.224 550.672 149.187 550.672 146.729C550.672 144.318 551.469 142.292 553.063 140.651C554.635 139.016 556.682 138.198 559.203 138.198C561.599 138.198 563.547 139.016 565.052 140.651C566.604 142.292 567.38 144.318 567.38 146.729C567.38 147.182 567.328 147.755 567.219 148.443Z" fill="white"/>
<path d="M574.167 152.484C574.167 153.24 573.901 153.88 573.359 154.422C572.823 154.964 572.177 155.229 571.422 155.229C570.667 155.229 570.021 154.964 569.484 154.422C568.943 153.88 568.677 153.24 568.677 152.484C568.677 151.729 568.943 151.083 569.484 150.547C570.021 150.005 570.667 149.734 571.422 149.734C572.177 149.734 572.823 150.005 573.359 150.547C573.901 151.083 574.167 151.729 574.167 152.484Z" fill="white"/>
<path d="M0 46.0312H74.6927V69.9896H49.7917V154.932H24.901V69.9896H0" fill="white"/>
<path d="M135.672 94.2552H190.276V103.594C190.276 119.771 185.193 132.792 175.031 142.641C164.969 152.286 152.161 157.109 136.604 157.109C119.698 157.109 105.646 151.661 94.4427 140.776C83.3438 129.885 77.7969 116.505 77.7969 100.635C77.7969 84.7656 83.2917 71.3385 94.2865 60.3437C105.281 49.3489 118.813 43.8489 134.891 43.8489C144.953 43.8489 154.208 46.1094 162.661 50.6198C171.115 55.1302 177.729 61.1771 182.5 68.7448L161.339 80.8802C158.849 77.0416 155.245 73.9531 150.526 71.6198C145.807 69.2864 140.547 68.1198 134.74 68.1198C125.505 68.1198 117.828 71.1823 111.714 77.3021C105.698 83.3177 102.688 91.1458 102.688 100.792C102.688 110.125 105.797 117.854 112.021 123.974C118.245 129.885 126.542 132.839 136.917 132.839C151.229 132.839 160.51 127.24 164.76 116.036H135.672" fill="white"/>
<path d="M204.276 154.932H229.167V46.0312H204.276V154.932Z" fill="white"/>
<path fill-rule="evenodd" clip-rule="evenodd" d="M176.964 20.8698L176.375 16.8073C168.349 14.8542 159.495 12.1615 151.219 9.78126C142.891 7.38543 134.677 5.19793 126.161 2.60418C119.276 0.510428 120.245 -0.21874 114.292 3.84376L86.9948 21.8542L81.8281 22.6719L81.2656 22.7552C79.6354 23.0365 79.4583 24.0729 79.8229 26.4063L79.8646 26.6511L69.3906 33.5833L69.8594 36.625L80.3229 29.599L82.651 44.5104L82.7552 44.8854C81.7969 45.5938 81.2552 46.7969 81.4531 48.0521C81.6406 49.25 82.4479 50.1927 83.4948 50.6094C82.0677 55.7865 83.4688 56.6927 85.3177 61.5625L88.3802 61.0833C88.6563 55.8802 89.7552 54.5781 86.8125 50.0886C87.6823 49.3698 88.1615 48.2292 87.974 47.0313C87.776 45.7708 86.8906 44.7917 85.7604 44.4167L85.7448 44.0208L85.4583 42.1927V42.1875L83.4688 29.599L83.2083 27.9271C94.724 20.2708 106.245 12.6094 117.76 4.94793C120.411 2.8698 121.271 4.53126 119.161 5.78126C116.958 7.45314 113.047 10.0521 111.698 10.9219L84.5469 28.8854L86.7031 42.5417L96.6875 45.3698L95.3438 36.6771C103.042 30.2865 107.88 27.2448 120.13 24.8542C122.656 24.349 124.104 24.2292 123.714 25.6771C122.266 27.4792 112.313 25.6458 97.3125 37.5573C97.5521 39.6198 98.2344 43.1146 98.651 46.2188L99.0781 48.9531C106.344 43.5313 114.901 40.0417 124.755 38.4948C124.922 38.4688 125.089 38.4531 125.255 38.4271C127.214 38.099 129.219 37.9011 131.302 37.8229C138.88 37.4219 146.198 38.4271 153.24 40.875C153.87 41.0938 154.474 41.3438 155.089 41.5781L154.219 35.9219" fill="#1A1E21"/>
</svg>
