<svg width="165" height="155" viewBox="0 0 165 155" fill="none" xmlns="http://www.w3.org/2000/svg">
<path d="M124.568 101.003C118.18 99.6681 104.606 96.396 101.536 88.7187C98.4645 81.0414 98.4645 65.6867 98.4645 65.6867H67.7551C67.7551 65.6867 67.7551 81.0414 64.6845 88.7187C61.6125 96.396 48.0391 99.6681 41.6511 101.003C29.4178 103.56 32.1045 110.469 37.8498 116.74C44.9218 124.457 55.0565 128.641 65.5245 128.641H100.696C111.162 128.641 121.298 124.457 128.37 116.74C134.115 110.469 136.802 103.56 124.568 101.003Z" stroke="#201E21" stroke-width="0.417892" stroke-miterlimit="10"/>
<path d="M124.568 101.003C118.18 99.6681 104.606 96.396 101.536 88.7187C98.4645 81.0414 98.4645 65.6867 98.4645 65.6867H67.7551C67.7551 65.6867 67.7551 81.0414 64.6845 88.7187C61.6125 96.396 48.0391 99.6681 41.6511 101.003C29.4178 103.56 32.1045 110.469 37.8498 116.74C44.9218 124.457 55.0565 128.641 65.5245 128.641H100.696C111.162 128.641 121.298 124.457 128.37 116.74C134.115 110.469 136.802 103.56 124.568 101.003Z" stroke="#201E21" stroke-width="0.417892" stroke-miterlimit="10"/>
<path d="M40.9248 136.289V154.921" stroke="#201E21" stroke-width="0.417892" stroke-miterlimit="10"/>
<path d="M161.881 140.717C159.265 124.889 149.234 111.069 134.669 104.344C131.602 102.928 128.24 101.769 124.569 101.003C121.012 100.259 115.228 98.9133 110.268 96.5427C87.1276 109.649 66.0037 102.52 55.1983 96.8933C50.417 99.048 45.0303 100.296 41.6517 101.003C33.4317 102.721 26.7503 106.403 21.4997 110.537C12.5583 117.576 6.53835 127.675 4.20635 138.812L0.749023 154.713H164.196L161.881 140.717Z" stroke="#201E21" stroke-width="0.417892" stroke-miterlimit="10"/>
<path d="M112.113 40.3747C112.113 38.6027 110.942 36.8413 108.593 36.2733C107.548 19.0507 100.345 5.73869 83.0342 5.73869C65.7795 5.73869 58.5702 18.9614 57.4875 36.1C54.3128 36.272 52.7422 38.3174 52.7422 40.3747C52.7422 42.316 54.8809 44.9587 57.5062 44.808C59.0049 62.104 70.1635 74.26 83.0342 74.26C97.6528 74.26 107.35 62.052 108.598 44.6934C110.621 44.124 112.113 41.9974 112.113 40.3747Z" stroke="#201E21" stroke-width="0.417892" stroke-miterlimit="10"/>
<path d="M44.4808 90.3707C44.4808 90.3707 37.1915 1.12271 82.2955 0.212042C134.905 -0.851958 117.353 89.6427 117.353 89.6427L44.4808 90.3707Z" fill="#211B1D"/>
<path d="M124.568 101.003C118.18 99.6681 104.606 96.396 101.536 88.7187C98.4645 81.0414 98.4645 65.6867 98.4645 65.6867H67.7551C67.7551 65.6867 67.7551 81.0414 64.6845 88.7187C61.6125 96.396 48.0391 99.6681 41.6511 101.003C29.4178 103.56 32.1045 110.469 37.8498 116.74C44.9218 124.457 55.0565 128.641 65.5245 128.641H100.696C111.162 128.641 121.298 124.457 128.37 116.74C134.115 110.469 136.802 103.56 124.568 101.003Z" fill="white"/>
<path d="M100.077 83.5614C98.1597 75.5094 98.465 65.6867 98.465 65.6867H67.7557C67.7557 65.6867 67.7557 81.0414 64.685 88.7187C63.7384 91.0827 61.7957 93.028 59.373 94.628C59.4344 94.6494 59.4944 94.6654 59.5544 94.6867C79.3144 96.8947 88.033 93.7587 100.077 83.5614Z" fill="#A1A6A5"/>
<path d="M161.881 140.717C159.265 124.889 149.234 111.069 134.669 104.344C131.602 102.928 128.24 101.769 124.569 101.003C121.012 100.259 115.228 98.9133 110.268 96.5427C87.1276 109.649 66.0037 102.52 55.1983 96.8933C50.417 99.048 45.0303 100.296 41.6517 101.003C33.4317 102.721 26.7503 106.403 21.4997 110.537C12.5583 117.576 6.53835 127.675 4.20635 138.812L0.749023 154.713H164.196L161.881 140.717Z" fill="#F3EFE9"/>
<path d="M112.113 40.3747C112.113 38.6027 110.942 36.8413 108.593 36.2733C107.548 19.0507 100.345 5.73869 83.0342 5.73869C65.7795 5.73869 58.5702 18.9614 57.4875 36.1C54.3128 36.272 52.7422 38.3174 52.7422 40.3747C52.7422 42.316 54.8809 44.9587 57.5062 44.808C59.0049 62.104 70.1635 74.26 83.0342 74.26C97.6528 74.26 107.35 62.052 108.598 44.6934C110.621 44.124 112.113 41.9974 112.113 40.3747Z" fill="white"/>
<path d="M108.224 41.968C108.22 41.4947 108.317 41.0427 108.462 40.5961C108.618 40.1507 108.794 39.7054 109.284 39.3334C109.52 39.1454 110.03 39.116 110.268 39.3534C110.4 39.448 110.466 39.5641 110.561 39.6694C110.685 39.8494 110.681 40.0027 110.686 40.1321C110.68 40.6467 110.545 41.0814 110.337 41.5067C110.274 41.048 110.27 40.5787 110.18 40.1947C110.152 40.1054 110.114 40.024 110.098 40.0227C110.032 39.9747 109.97 39.8934 109.912 39.8694C109.792 39.7947 109.769 39.8227 109.646 39.8907C109.393 40.0494 109.153 40.452 108.925 40.8094C108.696 41.1814 108.482 41.576 108.224 41.968Z" fill="#131112"/>
<path d="M56.6316 41.968C56.3729 41.576 56.1596 41.1814 55.9316 40.8094C55.7023 40.452 55.4623 40.0494 55.2103 39.8907C55.0876 39.8227 55.0636 39.7947 54.945 39.8694C54.8863 39.8934 54.8236 39.9747 54.7583 40.0227C54.7423 40.024 54.7036 40.1054 54.6756 40.1947C54.585 40.5787 54.5809 41.048 54.5183 41.5067C54.3103 41.0814 54.1769 40.6467 54.1689 40.1321C54.1743 40.0027 54.1703 39.8494 54.2956 39.6694C54.3903 39.5641 54.4569 39.448 54.5876 39.3534C54.8263 39.116 55.3369 39.1454 55.5716 39.3334C56.0609 39.7054 56.2369 40.1507 56.3929 40.5961C56.5383 41.0427 56.6356 41.4947 56.6316 41.968Z" fill="#131112"/>
<path d="M63.3193 33.612C65.8247 32.2973 68.5287 31.3054 71.3754 30.8667C72.7954 30.652 74.2754 30.572 75.7354 30.892C77.1807 31.18 78.65 31.9214 79.5953 33.156C80.598 34.356 80.9727 35.904 81.158 37.316C81.3513 38.7507 81.4193 40.1747 81.4527 41.5974C81.5353 44.4427 81.326 47.2721 81.094 50.0961L80.8447 49.82C82.4287 49.9187 84.018 49.9813 85.6154 50.112C84.026 50.2213 82.4273 50.2627 80.822 50.3387L80.566 50.3521L80.574 50.0627C80.6554 47.2494 80.59 44.4267 80.5034 41.628C80.4434 40.2294 80.3474 38.8294 80.1354 37.4694C79.906 36.1174 79.6007 34.7987 78.7927 33.7854C78.0313 32.7481 76.8287 32.096 75.5327 31.8054C74.2313 31.5134 72.8407 31.4853 71.466 31.6093C68.706 31.8867 65.9713 32.6427 63.3193 33.612Z" fill="#201E21"/>
<path d="M102.899 33.7827C101.466 33.3654 100.051 32.9454 98.6406 32.7054C97.2273 32.476 95.8073 32.4814 94.4033 32.708C91.582 33.1387 88.8793 34.308 86.0859 35.3387C88.4713 33.5707 91.2006 32.1493 94.2433 31.6507C95.7593 31.4267 97.3446 31.472 98.8166 31.8934C100.297 32.2947 101.639 32.9907 102.899 33.7827Z" fill="#201E21"/>
<path d="M72.1515 40.7947C72.1515 41.7147 71.6968 42.4601 71.1355 42.4601C70.5742 42.4601 70.1182 41.7147 70.1182 40.7947C70.1182 39.8761 70.5742 39.1307 71.1355 39.1307C71.6968 39.1307 72.1515 39.8761 72.1515 40.7947Z" fill="#201E21"/>
<path d="M94.1958 40.7947C94.1958 41.7147 93.7398 42.4601 93.1785 42.4601C92.6171 42.4601 92.1611 41.7147 92.1611 40.7947C92.1611 39.8761 92.6171 39.1307 93.1785 39.1307C93.7398 39.1307 94.1958 39.8761 94.1958 40.7947Z" fill="#201E21"/>
<path d="M66.5181 48.536C66.5181 48.804 66.3008 49.02 66.0341 49.02C65.7661 49.02 65.5488 48.804 65.5488 48.536C65.5488 48.2694 65.7661 48.0521 66.0341 48.0521C66.3008 48.0521 66.5181 48.2694 66.5181 48.536Z" fill="#EFB7B2"/>
<path d="M70.6024 46.7213C70.6024 46.988 70.3864 47.2053 70.1184 47.2053C69.8517 47.2053 69.6357 46.988 69.6357 46.7213C69.6357 46.4533 69.8517 46.2373 70.1184 46.2373C70.3864 46.2373 70.6024 46.4533 70.6024 46.7213Z" fill="#EFB7B2"/>
<path d="M70.6024 50.1387C70.6024 50.4054 70.3864 50.6227 70.1184 50.6227C69.8517 50.6227 69.6357 50.4054 69.6357 50.1387C69.6357 49.872 69.8517 49.6547 70.1184 49.6547C70.3864 49.6547 70.6024 49.872 70.6024 50.1387Z" fill="#EFB7B2"/>
<path d="M73.7772 48.052C73.7772 48.32 73.5612 48.536 73.2945 48.536C73.0265 48.536 72.8105 48.32 72.8105 48.052C72.8105 47.7854 73.0265 47.568 73.2945 47.568C73.5612 47.568 73.7772 47.7854 73.7772 48.052Z" fill="#EFB7B2"/>
<path d="M98.7051 48.536C98.7051 48.804 98.9211 49.02 99.1891 49.02C99.4557 49.02 99.6717 48.804 99.6717 48.536C99.6717 48.2694 99.4557 48.0521 99.1891 48.0521C98.9211 48.0521 98.7051 48.2694 98.7051 48.536Z" fill="#EFB7B2"/>
<path d="M94.6182 46.7213C94.6182 46.988 94.8355 47.2053 95.1022 47.2053C95.3702 47.2053 95.5875 46.988 95.5875 46.7213C95.5875 46.4533 95.3702 46.2373 95.1022 46.2373C94.8355 46.2373 94.6182 46.4533 94.6182 46.7213Z" fill="#EFB7B2"/>
<path d="M94.6182 50.1387C94.6182 50.4054 94.8355 50.6227 95.1022 50.6227C95.3702 50.6227 95.5875 50.4054 95.5875 50.1387C95.5875 49.872 95.3702 49.6547 95.1022 49.6547C94.8355 49.6547 94.6182 49.872 94.6182 50.1387Z" fill="#EFB7B2"/>
<path d="M91.4434 48.052C91.4434 48.32 91.6593 48.536 91.9287 48.536C92.1953 48.536 92.4114 48.32 92.4114 48.052C92.4114 47.7854 92.1953 47.568 91.9287 47.568C91.6593 47.568 91.4434 47.7854 91.4434 48.052Z" fill="#EFB7B2"/>
<path d="M77.1094 56.3253C78.016 56.9787 78.9694 57.5053 79.9294 57.9346C80.896 58.3453 81.9 58.6187 82.9054 58.632C83.904 58.6614 84.92 58.4707 85.8574 58.0147C86.356 57.8467 86.7747 57.5107 87.2574 57.264C87.7214 56.9853 88.128 56.6213 88.6147 56.3253C88.3067 56.7853 87.9627 57.236 87.5907 57.6693C87.16 58.0333 86.776 58.4867 86.252 58.7507C85.2894 59.4173 84.0654 59.7213 82.876 59.7C80.4574 59.616 78.3307 58.18 77.1094 56.3253Z" fill="#201E21"/>
<path d="M55.7765 29.0067C55.7765 29.0067 78.8019 30.0547 94.1112 8.93335C94.1112 8.93335 92.7272 36.1693 110.407 29.0147C110.407 29.0147 112.653 0.275997 83.6805 0.275997C54.7072 0.275997 55.7765 29.0067 55.7765 29.0067Z" fill="#211B1D"/>
</svg>
