<svg width="122" height="158" viewBox="0 0 122 158" fill="none" xmlns="http://www.w3.org/2000/svg" style="opacity: 0.4">
<path d="M66.672 94.2552H121.276V103.594C121.276 119.771 116.193 132.792 106.031 142.641C95.969 152.286 83.161 157.109 67.604 157.109C50.698 157.109 36.646 151.661 25.4427 140.776C14.3438 129.885 8.79688 116.505 8.79688 100.635C8.79688 84.7656 14.2917 71.3385 25.2865 60.3437C36.281 49.3489 49.813 43.8489 65.891 43.8489C75.953 43.8489 85.208 46.1094 93.661 50.6198C102.115 55.1302 108.729 61.1771 113.5 68.7448L92.339 80.8802C89.849 77.0416 86.245 73.9531 81.526 71.6198C76.807 69.2864 71.547 68.1198 65.74 68.1198C56.505 68.1198 48.828 71.1823 42.714 77.3021C36.698 83.3177 33.688 91.1458 33.688 100.792C33.688 110.125 36.797 117.854 43.021 123.974C49.245 129.885 57.542 132.839 67.917 132.839C82.229 132.839 91.51 127.24 95.76 116.036H66.672" fill="white"/>
<path fill-rule="evenodd" clip-rule="evenodd" d="M107.964 20.8698L107.375 16.8073C99.349 14.8542 90.495 12.1615 82.219 9.78126C73.891 7.38543 65.677 5.19793 57.161 2.60418C50.276 0.510428 51.245 -0.21874 45.292 3.84376L17.9948 21.8542L12.8281 22.6719L12.2656 22.7552C10.6354 23.0365 10.4583 24.0729 10.8229 26.4063L10.8646 26.6511L0.390625 33.5833L0.859421 36.625L11.3229 29.599L13.651 44.5104L13.7552 44.8854C12.7969 45.5938 12.2552 46.7969 12.4531 48.0521C12.6406 49.25 13.4479 50.1927 14.4948 50.6094C13.0677 55.7865 14.4688 56.6927 16.3177 61.5625L19.3802 61.0833C19.6563 55.8802 20.7552 54.5781 17.8125 50.0886C18.6823 49.3698 19.1615 48.2292 18.974 47.0313C18.776 45.7708 17.8906 44.7917 16.7604 44.4167L16.7448 44.0208L16.4583 42.1927V42.1875L14.4688 29.599L14.2083 27.9271C25.724 20.2708 37.245 12.6094 48.76 4.94793C51.411 2.8698 52.271 4.53126 50.161 5.78126C47.958 7.45314 44.047 10.0521 42.698 10.9219L15.5469 28.8854L17.7031 42.5417L27.6875 45.3698L26.3438 36.6771C34.042 30.2865 38.88 27.2448 51.13 24.8542C53.656 24.349 55.104 24.2292 54.714 25.6771C53.266 27.4792 43.313 25.6458 28.3125 37.5573C28.5521 39.6198 29.2344 43.1146 29.651 46.2188L30.0781 48.9531C37.344 43.5313 45.901 40.0417 55.755 38.4948C55.922 38.4688 56.089 38.4531 56.255 38.4271C58.214 38.099 60.219 37.9011 62.302 37.8229C69.88 37.4219 77.198 38.4271 84.24 40.875C84.87 41.0938 85.474 41.3438 86.089 41.5781L85.219 35.9219" fill="white"/>
</svg>
